<svg width="16" height="17" viewBox="0 0 16 17" fill="none" xmlns="http://www.w3.org/2000/svg">
<path id="Vector" d="M13.4502 17C12.7419 17 12.1398 16.7521 11.6439 16.2563C11.1481 15.7604 10.9002 15.1583 10.9002 14.45C10.9002 14.3508 10.9073 14.248 10.9214 14.1414C10.9356 14.0349 10.9569 13.9394 10.9852 13.855L4.9927 10.37C4.75186 10.5825 4.4827 10.7491 4.1852 10.8698C3.8877 10.9905 3.57603 11.0506 3.2502 11.05C2.54186 11.05 1.93978 10.8021 1.44395 10.3063C0.948112 9.81042 0.700195 9.20833 0.700195 8.5C0.700195 7.79167 0.948112 7.18958 1.44395 6.69375C1.93978 6.19792 2.54186 5.95 3.2502 5.95C3.57603 5.95 3.8877 6.01035 4.1852 6.13105C4.4827 6.25175 4.75186 6.41807 4.9927 6.63L10.9852 3.145C10.9569 3.06 10.9356 2.96452 10.9214 2.85855C10.9073 2.75258 10.9002 2.64973 10.9002 2.55C10.9002 1.84167 11.1481 1.23958 11.6439 0.74375C12.1398 0.247917 12.7419 0 13.4502 0C14.1585 0 14.7606 0.247917 15.2564 0.74375C15.7523 1.23958 16.0002 1.84167 16.0002 2.55C16.0002 3.25833 15.7523 3.86042 15.2564 4.35625C14.7606 4.85208 14.1585 5.1 13.4502 5.1C13.1244 5.1 12.8127 5.03993 12.5152 4.9198C12.2177 4.79967 11.9485 4.63307 11.7077 4.42L5.7152 7.905C5.74353 7.99 5.76478 8.08577 5.77895 8.1923C5.79311 8.29883 5.8002 8.4014 5.8002 8.5C5.8002 8.59917 5.79311 8.70202 5.77895 8.80855C5.76478 8.91508 5.74353 9.01057 5.7152 9.095L11.7077 12.58C11.9485 12.3675 12.2177 12.2012 12.5152 12.081C12.8127 11.9609 13.1244 11.9006 13.4502 11.9C14.1585 11.9 14.7606 12.1479 15.2564 12.6438C15.7523 13.1396 16.0002 13.7417 16.0002 14.45C16.0002 15.1583 15.7523 15.7604 15.2564 16.2563C14.7606 16.7521 14.1585 17 13.4502 17ZM13.4502 3.4C13.691 3.4 13.893 3.3184 14.0562 3.1552C14.2194 2.992 14.3008 2.79027 14.3002 2.55C14.3002 2.30917 14.2186 2.10715 14.0554 1.94395C13.8922 1.78075 13.6905 1.69943 13.4502 1.7C13.2094 1.7 13.0073 1.7816 12.8441 1.9448C12.6809 2.108 12.5996 2.30973 12.6002 2.55C12.6002 2.79083 12.6818 2.99285 12.845 3.15605C13.0082 3.31925 13.2099 3.40057 13.4502 3.4ZM3.2502 9.35C3.49103 9.35 3.69305 9.2684 3.85625 9.1052C4.01945 8.942 4.10076 8.74027 4.1002 8.5C4.1002 8.25917 4.0186 8.05715 3.8554 7.89395C3.6922 7.73075 3.49046 7.64943 3.2502 7.65C3.00936 7.65 2.80735 7.7316 2.64415 7.8948C2.48095 8.058 2.39963 8.25973 2.4002 8.5C2.4002 8.74083 2.4818 8.94285 2.645 9.10605C2.8082 9.26925 3.00993 9.35057 3.2502 9.35ZM13.4502 15.3C13.691 15.3 13.893 15.2184 14.0562 15.0552C14.2194 14.892 14.3008 14.6903 14.3002 14.45C14.3002 14.2092 14.2186 14.0072 14.0554 13.844C13.8922 13.6808 13.6905 13.5994 13.4502 13.6C13.2094 13.6 13.0073 13.6816 12.8441 13.8448C12.6809 14.008 12.5996 14.2097 12.6002 14.45C12.6002 14.6908 12.6818 14.8928 12.845 15.0561C13.0082 15.2192 13.2099 15.3006 13.4502 15.3Z" fill="#737373"/>
</svg>
